<svg width="360" height="275" viewBox="0 0 360 275" fill="none" xmlns="http://www.w3.org/2000/svg">
<g clip-path="url(#clip0_3_40)">
<path d="M89.9412 157.237C89.9098 156.77 89.7866 156.314 89.5787 155.895C89.3708 155.476 89.0823 155.101 88.7297 154.794L83.0637 149.856C82.3981 149.275 81.5404 148.962 80.6571 148.978C79.7737 148.994 78.9279 149.338 78.2838 149.942C78.1972 150.022 78.1155 150.107 78.0394 150.197L63.2461 167.159L61.6272 169.012L36.8766 197.392C36.2576 198.106 35.9465 199.036 36.0114 199.978C36.0763 200.921 36.5119 201.799 37.2229 202.421L42.8837 207.359C43.5965 207.98 44.5261 208.292 45.4689 208.228C46.4117 208.164 47.2907 207.729 47.9132 207.018L61.6272 191.293L73.9874 177.116L89.0707 159.823C89.379 159.471 89.6147 159.061 89.764 158.617C89.9134 158.173 89.9736 157.704 89.9412 157.237Z" fill="#9768D1"/>
<path d="M179.668 125.243L176.227 118.564C175.792 117.726 175.042 117.094 174.143 116.807C173.243 116.52 172.267 116.601 171.426 117.032L143.392 131.484L125.769 140.571L115.766 145.727C115.504 145.861 115.261 146.029 115.043 146.226C114.558 146.648 114.198 147.196 114.004 147.809C113.86 148.255 113.806 148.725 113.846 149.192C113.885 149.658 114.017 150.113 114.233 150.528L115.577 153.139L117.675 157.207C117.889 157.623 118.183 157.993 118.54 158.295C118.897 158.597 119.311 158.826 119.757 158.968C120.111 159.079 120.48 159.135 120.851 159.136C121.417 159.136 121.974 159 122.475 158.739L134.357 152.615L149.893 144.602L178.136 130.043C178.974 129.608 179.605 128.859 179.893 127.959C180.18 127.06 180.099 126.083 179.668 125.243V125.243Z" fill="#9768D1"/>
<path d="M150.046 144.923L149.893 144.602L143.876 132.207C143.45 131.364 142.71 130.724 141.814 130.425C141.367 130.276 140.894 130.217 140.424 130.253C139.954 130.289 139.495 130.418 139.076 130.634L124.394 139.532L114.62 145.458C114.546 145.495 114.478 145.543 114.417 145.6C113.857 146.104 113.556 147.397 113.312 148.456C113.225 148.822 113.154 149.143 113.083 149.352C113.058 149.438 113.027 149.53 113.007 149.622C112.803 150.444 112.901 151.313 113.282 152.07L114.483 154.468L116.651 158.785C116.95 159.377 117.407 159.874 117.971 160.222C118.536 160.57 119.185 160.754 119.848 160.755C120.393 160.754 120.931 160.625 121.416 160.378L135.09 154.982L148.458 149.703C149.301 149.279 149.942 148.537 150.239 147.641C150.537 146.745 150.467 145.768 150.046 144.923H150.046Z" fill="#2F2E41"/>
<path d="M101.549 125.76C116.596 125.76 128.793 113.563 128.793 98.5159C128.793 83.4692 116.596 71.2714 101.549 71.2714C86.5021 71.2714 74.3043 83.4692 74.3043 98.5159C74.3043 113.563 86.5021 125.76 101.549 125.76Z" fill="#9768D1"/>
<path d="M102.337 207.222C102.31 206.53 102.082 205.86 101.679 205.297C101.277 204.733 100.718 204.3 100.071 204.05C99.6614 203.888 99.2244 203.806 98.7836 203.806H91.2697C90.325 203.807 89.4192 204.183 88.7512 204.851C88.0831 205.519 87.7073 206.425 87.7063 207.37V271.007C87.7073 271.952 88.0831 272.858 88.7511 273.526C89.4192 274.194 90.325 274.57 91.2697 274.571H98.7836C99.7283 274.57 100.634 274.194 101.302 273.526C101.97 272.858 102.346 271.952 102.347 271.007V207.37C102.349 207.32 102.345 207.271 102.337 207.222Z" fill="#9768D1"/>
<path d="M136.475 235.638C136.371 235.395 136.242 235.164 136.087 234.95L123.279 217.031L112.727 202.274H94.7263L95.999 204.05L98.2644 207.222L105.284 217.037L120.327 238.076L124.181 243.462C124.73 244.23 125.562 244.749 126.493 244.905C127.425 245.06 128.38 244.84 129.149 244.292L135.263 239.919C135.92 239.448 136.398 238.768 136.618 237.99C136.838 237.212 136.787 236.383 136.475 235.638ZM99.6693 184.009C99.1184 183.241 98.2854 182.723 97.353 182.568C96.4206 182.413 95.465 182.635 94.6957 183.184L88.582 187.552C87.8141 188.103 87.296 188.936 87.1414 189.868C86.9867 190.8 87.2083 191.756 87.7573 192.525L89.9971 195.656H107.997L99.6693 184.009Z" fill="#9768D1"/>
<path d="M136.591 235.811C136.555 235.751 136.516 235.693 136.474 235.638C136.002 234.996 135.38 234.478 134.662 234.131L127.937 230.786C126.176 229.911 124.282 230.125 123.717 231.265L120.327 238.076L106.384 266.085C105.813 267.225 106.786 268.864 108.542 269.74L115.267 273.089C115.935 273.43 116.671 273.615 117.42 273.629C118.367 273.629 119.156 273.278 119.487 272.611L136.82 237.791C136.957 237.469 137.008 237.118 136.968 236.771C136.927 236.423 136.798 236.093 136.591 235.811Z" fill="#9768D1"/>
<path d="M96.3196 148.863L95.1896 147.753L94.5634 147.127L90.9694 143.589C90.3652 142.995 89.5697 142.634 88.7244 142.571C88.6277 142.566 88.536 142.561 88.4393 142.561C88.2255 142.566 87.8997 142.536 87.5179 142.505C86.3116 142.403 84.8048 142.271 84.2803 142.81L77.3215 148.828L62.6147 161.539C62.081 162.077 61.7347 162.773 61.6271 163.524C61.5982 163.704 61.5845 163.886 61.5863 164.069C61.5871 164.231 61.6007 164.393 61.6271 164.552C61.7353 165.324 62.0949 166.038 62.6502 166.584L63.246 167.159L72.8468 176.363C73.5202 177.024 74.428 177.392 75.3718 177.386C75.7838 177.386 76.1924 177.311 76.5783 177.167C77.0758 176.983 77.5261 176.691 77.8967 176.312L94.6296 155.995L95.724 154.666L96.3553 153.903C97.018 153.229 97.3864 152.32 97.3797 151.376C97.373 150.431 96.9917 149.527 96.3196 148.863Z" fill="#2F2E41"/>
<path d="M97.922 108.614L97.8937 107.596C99.7877 107.543 101.458 107.424 102.712 106.507C103.068 106.233 103.36 105.885 103.57 105.487C103.779 105.089 103.9 104.651 103.925 104.202C103.947 103.928 103.905 103.652 103.803 103.397C103.702 103.141 103.542 102.913 103.338 102.729C102.505 102.025 101.165 102.253 100.188 102.701L99.3453 103.087L100.961 91.2817L101.969 91.4199L100.595 101.462C101.923 101.072 103.153 101.24 103.995 101.951C104.318 102.234 104.572 102.587 104.736 102.984C104.901 103.38 104.971 103.81 104.942 104.238C104.912 104.841 104.751 105.43 104.47 105.964C104.188 106.498 103.793 106.964 103.313 107.33C101.701 108.508 99.6056 108.566 97.922 108.614Z" fill="#2F2E41"/>
<path d="M112.441 92.2859H106.958V93.3041H112.441V92.2859Z" fill="#2F2E41"/>
<path d="M95.1331 92.2859H89.6498V93.3041H95.1331V92.2859Z" fill="#2F2E41"/>
<path d="M99.0261 57.7006C96.005 45.5904 84.2942 36.292 71.7461 36.5233C65.5338 36.6976 59.5432 38.8698 54.663 42.7176C52.2028 44.6324 50.0847 46.9499 48.3983 49.5719C46.5072 52.5234 45.3197 55.8552 44.3926 59.2181C42.5192 66.0129 41.6363 73.7018 36.8825 79.2508C34.9113 81.497 32.4808 83.2939 29.7554 84.52C27.03 85.7461 24.0731 86.3728 21.0847 86.3579C18.0738 86.311 15.1146 85.5676 12.439 84.186C9.76342 82.8044 7.44403 80.8221 5.66251 78.3944C2.08415 73.6237 0.322452 67.0257 2.38975 61.2679C3.4042 58.4425 5.58556 55.7736 8.70536 55.3025C10.1282 55.1099 11.5762 55.3376 12.8713 55.9575C14.1663 56.5774 15.2518 57.5624 15.9942 58.7914C17.3972 61.2532 16.9485 64.5381 15.1908 66.7095C13.3394 68.9967 10.2455 69.63 7.51669 68.7111C6.2341 68.2751 5.10628 67.4749 4.27103 66.4084C3.66082 65.6378 2.57927 66.7182 3.18321 67.4809C4.15108 68.6416 5.40076 69.5344 6.81256 70.0738C8.22435 70.6132 9.75099 70.7811 11.2463 70.5614C12.7384 70.3357 14.1399 69.7046 15.2979 68.7369C16.4559 67.7693 17.326 66.5022 17.8133 65.074C18.3475 63.6579 18.4877 62.1234 18.2188 60.634C17.95 59.1445 17.2822 57.7559 16.2866 56.6159C15.2493 55.4879 13.9398 54.645 12.4834 54.1678C11.0271 53.6907 9.47265 53.5954 7.96891 53.8909C4.74752 54.573 2.40809 57.2224 1.19397 60.1582C-0.00236009 63.2083 -0.317987 66.533 0.283053 69.7537C0.837702 72.8615 2.04068 75.8177 3.81368 78.4298C5.58668 81.0419 7.88994 83.2512 10.5735 84.9141C16.0044 88.2488 22.7832 88.7076 28.7412 86.5655C31.7182 85.5125 34.4371 83.8382 36.7175 81.654C39.168 79.1679 41.0435 76.1747 42.2118 72.8853C44.898 65.852 45.2916 57.9817 49.0924 51.3706C52.4076 45.757 57.6369 41.5281 63.8199 39.4607C69.9666 37.337 76.6949 37.66 82.61 40.3627C88.4915 43.0867 93.2291 47.7905 95.9949 53.6525C96.6536 55.0809 97.1747 56.5687 97.5509 58.096C97.7893 59.0514 99.2641 58.655 99.026 57.7006L99.0261 57.7006Z" fill="#2F2E41"/>
<path d="M128.472 156C128.263 155.196 128.019 154.407 127.739 153.633C126.044 148.902 123.071 144.733 119.151 141.589C118.708 141.227 118.25 140.881 117.776 140.55C115.427 138.893 112.829 137.621 110.08 136.78C110.3 135.994 110.296 135.162 110.069 134.379C109.762 133.391 109.143 132.529 108.306 131.921C107.469 131.313 106.458 130.992 105.423 131.005H98.7848C97.7478 130.992 96.7342 131.313 95.8946 131.922C95.0551 132.53 94.4345 133.394 94.1253 134.384C93.8988 135.165 93.8951 135.995 94.1146 136.778C88.5421 138.489 83.6651 141.942 80.2 146.63C76.7349 151.317 74.8642 156.992 74.8628 162.822V215.597C74.8628 219.2 76.2321 222.127 77.9172 222.127H126.278C126.298 222.127 140.058 222.127 140.078 222.116C141.738 222.062 143.077 219.156 143.077 215.597C143.077 203.413 140.385 186.289 135.194 175.267L129.332 162.822C129.333 160.521 129.044 158.229 128.472 156Z" fill="#2F2E41"/>
<path d="M74.0992 104.789C70.7308 104.789 67.9905 100.678 67.9905 95.6256C67.9905 90.573 70.7308 86.4625 74.0992 86.4625C77.4676 86.4625 80.2079 90.573 80.2079 95.6256C80.2079 100.678 77.4676 104.789 74.0992 104.789Z" fill="#3F3D56"/>
<path d="M128.569 104.789C125.2 104.789 122.46 100.678 122.46 95.6256C122.46 90.573 125.2 86.4625 128.569 86.4625C131.937 86.4625 134.677 90.573 134.677 95.6256C134.677 100.678 131.937 104.789 128.569 104.789Z" fill="#3F3D56"/>
<path d="M130.283 103.355C130.162 103.355 130.042 103.326 129.935 103.271C129.827 103.216 129.734 103.135 129.663 103.037C129.592 102.938 129.546 102.825 129.528 102.705C129.51 102.585 129.521 102.462 129.559 102.348C131.019 98.0077 131.458 93.3898 130.842 88.8527C130.227 84.3156 128.573 79.9815 126.011 76.1873C123.448 72.3931 120.045 69.241 116.066 66.9759C112.086 64.7107 107.639 63.3936 103.068 63.127C98.4969 62.8603 93.9261 63.6512 89.7105 65.4382C85.495 67.2252 81.7483 69.9602 78.7617 73.4306C75.775 76.901 73.6288 81.0134 72.4899 85.4481C71.3509 89.8828 71.2499 94.5205 72.1947 99.0006C72.236 99.1985 72.197 99.4048 72.0864 99.5741C71.9758 99.7433 71.8026 99.8618 71.6047 99.9036C71.4069 99.9453 71.2006 99.9069 71.031 99.7967C70.8615 99.6865 70.7426 99.5135 70.7004 99.3158C69.7064 94.6055 69.8121 89.7294 71.0091 85.0666C72.2062 80.4038 74.4624 76.0798 77.6024 72.4308C80.7424 68.7818 84.6817 65.9061 89.1139 64.0271C93.5461 62.1482 98.3519 61.3166 103.158 61.5971C107.964 61.8776 112.64 63.2626 116.824 65.6445C121.007 68.0263 124.585 71.3408 127.279 75.3303C129.973 79.3198 131.711 83.8769 132.358 88.6473C133.004 93.4178 132.542 98.273 131.007 102.836C130.955 102.987 130.858 103.119 130.728 103.212C130.599 103.305 130.443 103.355 130.283 103.355Z" fill="#3F3D56"/>
<path d="M89.8988 77.3005C88.82 78.773 89.3519 80.7576 90.4885 82.0272C91.9676 83.6793 94.3262 83.7836 96.3742 83.4769C98.6722 83.1329 101.11 82.0562 103.436 82.7818C105.419 83.4002 106.834 85.1988 108.894 85.6505C110.721 86.0511 112.906 85.5208 113.546 83.5735C113.854 82.6377 112.38 82.2366 112.074 83.1675C111.659 84.4273 109.87 84.4022 108.846 84.0533C107.203 83.494 105.937 82.1336 104.322 81.4838C102.419 80.7177 100.354 81.0636 98.4156 81.5C96.5889 81.9113 94.4866 82.5212 92.6669 81.7528C91.3204 81.1843 90.2489 79.3933 91.2175 78.0713C91.799 77.2776 90.4744 76.5149 89.8989 77.3005H89.8988Z" fill="#2F2E41"/>
<path d="M163.175 274.56H53.2177C53.0827 274.56 52.9532 274.507 52.8577 274.411C52.7623 274.316 52.7086 274.186 52.7086 274.051C52.7086 273.916 52.7623 273.787 52.8577 273.691C52.9532 273.596 53.0827 273.542 53.2177 273.542H163.175C163.31 273.542 163.439 273.596 163.535 273.691C163.63 273.787 163.684 273.916 163.684 274.051C163.684 274.186 163.63 274.316 163.535 274.411C163.439 274.507 163.31 274.56 163.175 274.56Z" fill="#3F3D56"/>
<path d="M359.066 118.327H238.25C238.127 118.328 238.005 118.305 237.891 118.258C237.777 118.211 237.673 118.143 237.586 118.056C237.499 117.969 237.429 117.866 237.382 117.752C237.335 117.638 237.31 117.516 237.31 117.393C237.31 117.27 237.335 117.148 237.382 117.034C237.429 116.921 237.499 116.817 237.586 116.73C237.673 116.644 237.777 116.575 237.891 116.528C238.005 116.482 238.127 116.458 238.25 116.459H359.066C359.189 116.458 359.311 116.482 359.425 116.528C359.539 116.575 359.643 116.644 359.73 116.73C359.818 116.817 359.887 116.921 359.934 117.034C359.982 117.148 360.006 117.27 360.006 117.393C360.006 117.516 359.982 117.638 359.934 117.752C359.887 117.866 359.818 117.969 359.73 118.056C359.643 118.143 359.539 118.211 359.425 118.258C359.311 118.305 359.189 118.328 359.066 118.327Z" fill="#E6E6E6"/>
<path d="M307.707 66.7836H260.726C258.1 66.7807 255.584 65.7365 253.728 63.8803C251.871 62.0241 250.827 59.5074 250.824 56.8823V9.90107C250.827 7.27602 251.871 4.75936 253.728 2.90319C255.584 1.04702 258.101 0.00293852 260.726 0H307.707C310.332 0.00293852 312.848 1.04702 314.705 2.90319C316.561 4.75936 317.605 7.27602 317.608 9.90107V56.8823C317.605 59.5074 316.561 62.0241 314.705 63.8803C312.848 65.7365 310.332 66.7807 307.707 66.7836Z" fill="#9768D1"/>
<path opacity="0.1" d="M336.591 88.5713H289.61C286.985 88.5684 284.468 87.5243 282.612 85.6681C280.756 83.812 279.711 81.2953 279.708 78.6702V31.689C279.711 29.064 280.755 26.5472 282.612 24.691C284.468 22.8348 286.985 21.7907 289.61 21.7877H336.591C339.216 21.7907 341.733 22.8348 343.589 24.691C345.445 26.5472 346.489 29.064 346.492 31.689V78.6702C346.489 81.2953 345.445 83.812 343.589 85.6681C341.733 87.5243 339.216 88.5684 336.591 88.5713Z" fill="black"/>
<path d="M255.579 145.259C255.444 145.259 255.315 145.205 255.219 145.11C255.124 145.014 255.07 144.885 255.07 144.75V135.587C255.07 135.452 255.124 135.322 255.219 135.227C255.315 135.131 255.444 135.078 255.579 135.078C255.714 135.078 255.844 135.131 255.939 135.227C256.035 135.322 256.088 135.452 256.088 135.587V144.75C256.088 144.885 256.035 145.014 255.939 145.11C255.844 145.205 255.714 145.259 255.579 145.259Z" fill="#CCCCCC"/>
<path d="M297.068 145.259C296.933 145.259 296.803 145.205 296.708 145.11C296.612 145.014 296.559 144.885 296.559 144.75V135.587C296.559 135.452 296.612 135.322 296.708 135.227C296.803 135.131 296.933 135.078 297.068 135.078C297.203 135.078 297.332 135.131 297.428 135.227C297.523 135.322 297.577 135.452 297.577 135.587V144.75C297.577 144.885 297.523 145.014 297.428 145.11C297.332 145.205 297.203 145.259 297.068 145.259Z" fill="#3F3D56"/>
<path d="M300.631 145.259C300.496 145.259 300.367 145.205 300.271 145.11C300.176 145.014 300.122 144.885 300.122 144.75V135.587C300.122 135.452 300.176 135.322 300.271 135.227C300.367 135.131 300.496 135.078 300.631 135.078C300.766 135.078 300.896 135.131 300.991 135.227C301.087 135.322 301.14 135.452 301.14 135.587V144.75C301.14 144.885 301.087 145.014 300.991 145.11C300.896 145.205 300.766 145.259 300.631 145.259Z" fill="#3F3D56"/>
<path d="M263.052 145.425C262.845 145.424 262.641 145.369 262.462 145.265L256.407 141.181C256.396 141.174 256.384 141.167 256.373 141.16C256.206 141.055 256.068 140.908 255.974 140.735C255.88 140.561 255.831 140.366 255.834 140.168C255.833 139.961 255.887 139.757 255.99 139.577C256.094 139.397 256.244 139.248 256.424 139.146L262.432 135.091C262.61 134.98 262.816 134.919 263.026 134.915C263.236 134.91 263.444 134.961 263.627 135.064C263.811 135.166 263.964 135.315 264.071 135.497C264.177 135.678 264.233 135.885 264.233 136.095V144.242C264.233 144.555 264.108 144.855 263.887 145.077C263.665 145.298 263.366 145.424 263.052 145.425ZM263.001 144.402C263.023 144.409 263.047 144.411 263.069 144.407C263.092 144.404 263.114 144.396 263.134 144.383C263.159 144.369 263.18 144.349 263.194 144.324C263.208 144.299 263.216 144.271 263.215 144.242V136.095C263.215 136.066 263.208 136.038 263.193 136.014C263.179 135.989 263.159 135.968 263.134 135.954C263.109 135.94 263.081 135.932 263.052 135.932C263.024 135.932 262.996 135.939 262.971 135.954L256.964 140.009C256.863 140.068 256.852 140.133 256.852 140.168C256.851 140.197 256.859 140.225 256.873 140.25C256.887 140.275 256.908 140.296 256.933 140.309L256.964 140.328L263.001 144.402Z" fill="#CCCCCC"/>
<path d="M341.101 145.259C340.966 145.259 340.837 145.205 340.742 145.11C340.646 145.014 340.592 144.885 340.592 144.75V135.587C340.592 135.452 340.646 135.322 340.742 135.227C340.837 135.131 340.966 135.078 341.101 135.078C341.236 135.078 341.366 135.131 341.461 135.227C341.557 135.322 341.611 135.452 341.611 135.587V144.75C341.61 144.885 341.557 145.014 341.461 145.11C341.366 145.205 341.236 145.259 341.101 145.259Z" fill="#CCCCCC"/>
<path d="M333.619 145.423C333.415 145.422 333.214 145.368 333.038 145.265C332.858 145.162 332.708 145.013 332.604 144.833C332.5 144.654 332.446 144.45 332.447 144.242V136.095C332.447 135.888 332.502 135.684 332.606 135.504C332.709 135.325 332.858 135.176 333.038 135.072C333.218 134.969 333.421 134.914 333.629 134.914C333.836 134.914 334.04 134.969 334.219 135.072L340.287 139.164C340.46 139.268 340.603 139.415 340.701 139.592C340.799 139.768 340.85 139.967 340.847 140.168C340.848 140.373 340.796 140.573 340.695 140.751C340.595 140.929 340.449 141.077 340.274 141.181L334.249 145.246C334.058 145.36 333.841 145.421 333.619 145.423ZM333.466 144.242C333.466 144.27 333.473 144.299 333.487 144.323C333.502 144.348 333.522 144.369 333.547 144.383C333.572 144.397 333.6 144.405 333.628 144.405C333.657 144.405 333.685 144.397 333.71 144.383L339.74 140.314C339.766 140.299 339.788 140.278 339.804 140.253C339.819 140.228 339.828 140.199 339.829 140.169V140.168C339.829 140.14 339.822 140.111 339.808 140.087C339.793 140.062 339.773 140.041 339.748 140.027L333.68 135.935C333.658 135.928 333.634 135.926 333.611 135.929C333.588 135.932 333.566 135.941 333.547 135.954C333.522 135.968 333.501 135.988 333.487 136.013C333.472 136.038 333.465 136.066 333.466 136.095L333.466 144.242Z" fill="#CCCCCC"/>
<path d="M271.869 123.502C275.243 123.502 277.978 120.767 277.978 117.393C277.978 114.019 275.243 111.284 271.869 111.284C268.495 111.284 265.76 114.019 265.76 117.393C265.76 120.767 268.495 123.502 271.869 123.502Z" fill="#3F3D56"/>
</g>
<defs>
<clipPath id="clip0_3_40">
<rect width="360" height="274.571" fill="white"/>
</clipPath>
</defs>
</svg>
