<svg width="86" height="86" viewBox="0 0 86 86" fill="none" xmlns="http://www.w3.org/2000/svg">
<circle cx="43" cy="43" r="43" fill="#9768D1"/>
<path fill-rule="evenodd" clip-rule="evenodd" d="M51.911 35.631C52.7614 35.6179 53.5793 35.957 54.171 36.568C54.7831 37.1591 55.1233 37.9772 55.111 38.828V50.015C55.111 50.8637 54.7739 51.6776 54.1737 52.2777C53.5736 52.8779 52.7597 53.215 51.911 53.215H34.327C33.4766 53.2281 32.6587 52.889 32.067 52.278C31.456 51.6863 31.1169 50.8684 31.13 50.018V38.828C31.1177 37.9772 31.4579 37.1591 32.07 36.568C32.6617 35.957 33.4796 35.6179 34.33 35.631H37.124L37.761 33.931C37.9379 33.5002 38.2403 33.1326 38.629 32.876C39.0028 32.5963 39.4552 32.4413 39.922 32.433H46.313C46.7798 32.4413 47.2322 32.5963 47.606 32.876C47.9947 33.1326 48.2971 33.5002 48.474 33.931L49.111 35.631H51.911ZM43.118 50.018C44.6059 50.04 46.0366 49.4457 47.071 48.376C48.1224 47.3294 48.7135 45.907 48.7135 44.4235C48.7135 42.94 48.1224 41.5176 47.071 40.471C46.0366 39.4013 44.6059 38.807 43.118 38.829C41.6301 38.807 40.1994 39.4013 39.165 40.471C38.1139 41.5177 37.523 42.9401 37.523 44.4235C37.523 45.9069 38.1139 47.3293 39.165 48.376C40.1994 49.4457 41.6301 50.04 43.118 50.018Z" fill="white"/>
<path d="M43.119 40.823C41.4011 40.8205 39.9209 42.0322 39.5838 43.7167C39.2468 45.4011 40.1468 47.0891 41.7334 47.7478C43.32 48.4065 45.1509 47.8525 46.1061 46.4246C47.0612 44.9968 46.8744 43.093 45.66 41.878C44.995 41.1906 44.0753 40.8088 43.119 40.823Z" fill="white"/>
</svg>
