<svg width="36" height="32" viewBox="0 0 36 32" fill="none" xmlns="http://www.w3.org/2000/svg">
<path d="M10.5235 16L1.11275 25.4956C-0.370819 26.9834 -0.370819 29.3963 1.11275 30.8841C2.59631 32.372 5.00228 32.372 6.48585 30.8841L18.6356 18.6994C19.3573 17.9757 19.7584 17.0104 19.7584 16.0051C19.7584 14.9997 19.3573 14.0345 18.6356 13.3107L6.48585 1.12598C5.72391 0.361852 4.76176 0 3.79926 0C2.83676 0 1.87433 0.401972 1.11267 1.12598C-0.370891 2.61382 -0.370891 5.02671 1.11267 6.51455L10.5235 16Z" fill="black"/>
<path d="M26.2013 16L16.7906 25.4956C15.307 26.9834 15.307 29.3963 16.7906 30.8841C18.2742 32.372 20.6801 32.372 22.1637 30.8841L34.3135 18.6994C35.0351 17.9757 35.4362 17.0104 35.4362 16.0051C35.4362 14.9997 35.0351 14.0345 34.3135 13.3107L22.1637 1.12598C21.4018 0.361852 20.4396 0 19.4771 0C18.5146 0 17.5522 0.401972 16.7905 1.12598C15.307 2.61382 15.307 5.02671 16.7905 6.51455L26.2013 16Z" fill="black"/>
</svg>
